<?xml version="1.0" standalone="no"?>
<!DOCTYPE svg PUBLIC "-//W3C//DTD SVG 20010904//EN"
 "http://www.w3.org/TR/2001/REC-SVG-20010904/DTD/svg10.dtd">
<svg version="1.0" xmlns="http://www.w3.org/2000/svg"
 width="600.000000pt" height="600.000000pt" viewBox="0 0 600.000000 600.000000"
 preserveAspectRatio="xMidYMid meet">
<metadata>
Created by potrace 1.11, written by Peter Selinger 2001-2013
</metadata>
<g transform="translate(0.000000,600.000000) scale(0.100000,-0.100000)"
fill="#000000" stroke="none">
<path d="M0 3000 l0 -3000 3000 0 3000 0 0 3000 0 3000 -3000 0 -3000 0 0
-3000z m4396 1706 c18 -14 19 -33 19 -720 0 -664 -1 -706 -18 -723 -17 -17
-73 -18 -1025 -20 l-1007 -3 -17 -21 c-26 -31 -26 -227 0 -258 l17 -21 1012
-3 c814 -2 1015 -5 1025 -15 19 -19 19 -695 0 -714 -11 -11 -274 -13 -1392
-13 -1311 0 -1380 1 -1397 18 -17 17 -18 65 -18 867 0 802 1 850 18 867 17 17
73 18 1010 20 l992 3 18 21 c15 19 17 52 17 360 0 338 0 338 22 353 32 23 693
24 724 2z m5 -2813 c11 -13 14 -82 14 -353 0 -271 -3 -340 -14 -353 -12 -16
-122 -17 -1390 -17 -1174 0 -1380 2 -1397 14 -18 14 -19 29 -19 351 l0 337 24
19 c23 18 59 19 1396 19 1265 0 1374 -1 1386 -17z"/>
</g>
</svg>
